<svg xmlns="http://www.w3.org/2000/svg">
  <symbol id="car" viewBox="0 0 80 60"><path d="M9 43l4-16c2-8 8-13 17-15h20c9 2 15 7 17 15l4 16-5 8H14z" fill="#243a4e" stroke="#0c1822" stroke-width="2.5" stroke-linejoin="round"/><path d="M23 18h34c4 2 7 6 8 11H15c2-5 4-9 8-11z" fill="#6f9db7" stroke="#b8ccd6" stroke-width="2"/><path d="M40 18v11" stroke="#263b49" stroke-width="2"/><path d="M16 35h14l-4 7H13m51-7H50l4 7h13" fill="#dce8ed" stroke="#7d98a6" stroke-width="2"/><rect x="31" y="36" width="18" height="8" rx="3" fill="#101d27"/><path d="M34 40h12" stroke="#4b7188" stroke-width="2"/><circle cx="20" cy="49" r="6" fill="#101820"/><circle cx="60" cy="49" r="6" fill="#101820"/></symbol>
  <symbol id="moto" viewBox="0 0 80 60"><circle cx="20" cy="47" r="10" fill="#111a21"/><circle cx="20" cy="47" r="5" fill="#9aabb4"/><circle cx="61" cy="47" r="10" fill="#111a21"/><circle cx="61" cy="47" r="5" fill="#9aabb4"/><path d="M20 47l13-25 13 2 11 23H20z" fill="#263b4e" stroke="#101a23" stroke-width="3" stroke-linejoin="round"/><path d="M32 23l11 24m-5-17h18l5 17M46 23h12" fill="none" stroke="#101a23" stroke-width="3" stroke-linecap="round"/><path d="M29 26l-9-8h16" fill="none" stroke="#2f86b5" stroke-width="4" stroke-linecap="round"/><path d="M45 26l8 7H36z" fill="#b8c8d0"/></symbol>
  <symbol id="microcar" viewBox="0 0 80 60"><path d="M16 48V25c0-10 7-17 18-17h12c11 0 18 7 18 17v23z" fill="#415f69" stroke="#17282e" stroke-width="3"/><path d="M25 15h30l5 16H20z" fill="#91b5bf" stroke="#d1e0e4" stroke-width="2"/><path d="M40 15v16" stroke="#304d57" stroke-width="2"/><rect x="11" y="33" width="58" height="15" rx="5" fill="#334e58" stroke="#17282e" stroke-width="3"/><rect x="31" y="37" width="18" height="7" rx="2" fill="#18282e"/><path d="M16 38h9m30 0h9" stroke="#e2b64d" stroke-width="3" stroke-linecap="round"/><circle cx="23" cy="48" r="6" fill="#111a1f"/><circle cx="57" cy="48" r="6" fill="#111a1f"/></symbol>
  <symbol id="b1" viewBox="0 0 72 56"><circle cx="15" cy="43" r="10" fill="#263548"/><circle cx="57" cy="43" r="10" fill="#263548"/><path d="M18 40l8-19h18l11 19z" fill="#6575b6" stroke="#242e54" stroke-width="3"/><path d="M27 21l6-9h10l5 9M14 29h45M36 22v18" fill="none" stroke="#242e54" stroke-width="3" stroke-linecap="round"/><path d="M8 32h16m24 0h16" stroke="#edb53e" stroke-width="5" stroke-linecap="round"/></symbol>
  <symbol id="license" viewBox="0 0 72 56"><rect x="7" y="8" width="58" height="40" rx="9" fill="#f4f8f4" stroke="#12616c" stroke-width="3"/><rect x="12" y="13" width="19" height="23" rx="6" fill="#55a9b3"/><circle cx="21.5" cy="21" r="5" fill="#e7f4f5"/><path d="M14 34c2-6 13-6 15 0" fill="#e7f4f5"/><path d="M38 17h19M38 26h16M14 42h43" stroke="#12616c" stroke-width="3" stroke-linecap="round"/><circle cx="59" cy="12" r="5" fill="#edb53e"/></symbol>
  <symbol id="license-check" viewBox="0 0 72 56"><rect x="7" y="8" width="58" height="40" rx="9" fill="#fff7e8" stroke="#87521f" stroke-width="3"/><path d="M17 26l8 8 16-18" fill="none" stroke="#2b8a63" stroke-width="5" stroke-linecap="round" stroke-linejoin="round"/><path d="M47 18h10M47 27h10M16 42h41" stroke="#87521f" stroke-width="3" stroke-linecap="round"/><circle cx="59" cy="12" r="5" fill="#d76b42"/></symbol>
  <symbol id="training" viewBox="0 0 72 56"><circle cx="31" cy="31" r="19" fill="#dff1ef" stroke="#12616c" stroke-width="4"/><circle cx="31" cy="31" r="6" fill="#12616c"/><path d="M13 28h36M31 12v13M19 45l8-11m16 11l-8-11" stroke="#12616c" stroke-width="4" stroke-linecap="round"/><path d="M48 30l8-8 8 8M56 22v20" fill="none" stroke="#e39a28" stroke-width="5" stroke-linecap="round" stroke-linejoin="round"/></symbol>
  <symbol id="examiner" viewBox="0 0 72 56"><rect x="14" y="8" width="44" height="43" rx="8" fill="#e5f1f2" stroke="#12616c" stroke-width="3"/><rect x="26" y="4" width="20" height="10" rx="5" fill="#e2ad38"/><circle cx="28" cy="25" r="7" fill="#4a9ca8"/><path d="M18 40c2-9 18-9 20 0M43 23h9M43 31h9M43 39h9" fill="none" stroke="#12616c" stroke-width="3" stroke-linecap="round"/></symbol>
  <symbol id="schedule" viewBox="0 0 72 56"><rect x="8" y="10" width="44" height="39" rx="8" fill="#e5f1f2" stroke="#12616c" stroke-width="3"/><path d="M8 21h44M18 6v10M42 6v10" stroke="#12616c" stroke-width="4" stroke-linecap="round"/><circle cx="52" cy="38" r="14" fill="#e2ad38" stroke="#754f18" stroke-width="3"/><path d="M52 30v9l6 4" fill="none" stroke="#754f18" stroke-width="3" stroke-linecap="round"/></symbol>
  <symbol id="training-pro" viewBox="0 0 64 64"><circle cx="27" cy="34" r="19" fill="none" stroke="#f1f4f5" stroke-width="5"/><circle cx="27" cy="34" r="6" fill="#e3484f"/><path d="M9 31h36M27 16v12M16 51l8-12m14 12l-8-12" stroke="#f1f4f5" stroke-width="5" stroke-linecap="round"/><path d="M44 31l7-7 7 7M51 24v25" fill="none" stroke="#e3484f" stroke-width="5" stroke-linecap="round" stroke-linejoin="round"/></symbol>
  <symbol id="license-pro" viewBox="0 0 64 64"><rect x="6" y="12" width="52" height="39" rx="7" fill="none" stroke="#f1f4f5" stroke-width="4"/><circle cx="20" cy="28" r="7" fill="#e3484f"/><path d="M10 45c2-10 18-10 20 0M34 23h17M34 32h14M34 41h17" fill="none" stroke="#f1f4f5" stroke-width="4" stroke-linecap="round"/></symbol>
  <symbol id="license-test-pro" viewBox="0 0 64 64"><rect x="6" y="12" width="52" height="39" rx="7" fill="none" stroke="#f1f4f5" stroke-width="4"/><path d="M14 31l7 7 14-17" fill="none" stroke="#e3484f" stroke-width="5" stroke-linecap="round" stroke-linejoin="round"/><path d="M40 23h11M40 33h11M14 45h37" stroke="#f1f4f5" stroke-width="4" stroke-linecap="round"/></symbol>
  <symbol id="examiner-pro" viewBox="0 0 64 64"><circle cx="32" cy="17" r="10" fill="none" stroke="#e3484f" stroke-width="5"/><path d="M13 56c1-16 8-25 19-25s18 9 19 25M27 33l5 8 5-8M32 41v12" fill="none" stroke="#f1f4f5" stroke-width="5" stroke-linecap="round" stroke-linejoin="round"/></symbol>
  <symbol id="archive-pro" viewBox="0 0 64 64"><path d="M7 18h20l6 7h24v29H7z" fill="none" stroke="#f1f4f5" stroke-width="5" stroke-linejoin="round"/><path d="M7 25h50M23 39h18" stroke="#e3484f" stroke-width="5" stroke-linecap="round"/></symbol>
  <symbol id="documents-pro" viewBox="0 0 64 64"><path d="M14 7h25l12 12v38H14z" fill="none" stroke="#f1f4f5" stroke-width="5" stroke-linejoin="round"/><path d="M39 7v13h12M23 32h19M23 42h19" stroke="#e3484f" stroke-width="4" stroke-linecap="round"/></symbol>
  <symbol id="checklist-pro" viewBox="0 0 64 64"><rect x="13" y="9" width="38" height="48" rx="5" fill="none" stroke="#f1f4f5" stroke-width="5"/><path d="M23 7h18v9H23z" fill="#e3484f"/><path d="M21 30l4 4 7-8m-11 20l4 4 7-8m7-12h5m-5 16h5" fill="none" stroke="#e3484f" stroke-width="4" stroke-linecap="round" stroke-linejoin="round"/></symbol>
  <symbol id="settings-pro" viewBox="0 0 64 64"><path d="M32 8l5 7 9-1 3 8 8 4-3 8 3 8-8 4-3 8-9-1-5 7-5-7-9 1-3-8-8-4 3-8-3-8 8-4 3-8 9 1z" fill="none" stroke="#f1f4f5" stroke-width="4" stroke-linejoin="round"/><circle cx="32" cy="34" r="9" fill="none" stroke="#e3484f" stroke-width="5"/></symbol>
  <symbol id="import-pro" viewBox="0 0 64 64"><path d="M12 44v12h40V44M32 8v34M20 30l12 12 12-12" fill="none" stroke="#f1f4f5" stroke-width="5" stroke-linecap="round" stroke-linejoin="round"/><path d="M32 8v34" stroke="#e3484f" stroke-width="5"/></symbol>
  <symbol id="share-pro" viewBox="0 0 64 64"><circle cx="15" cy="32" r="7" fill="#e3484f"/><circle cx="49" cy="15" r="7" fill="#f1f4f5"/><circle cx="49" cy="49" r="7" fill="#f1f4f5"/><path d="M21 29l21-11M21 35l21 11" stroke="#f1f4f5" stroke-width="5"/></symbol>
  <symbol id="road-link-pro" viewBox="0 0 64 64"><path d="M24 58l6-52h8l6 52M32 16h7M30 30h11M28 45h15" fill="none" stroke="#f1f4f5" stroke-width="5" stroke-linecap="round"/><path d="M47 10h11v11M58 10L45 23" fill="none" stroke="#e3484f" stroke-width="4" stroke-linecap="round" stroke-linejoin="round"/></symbol>
  <symbol id="logout-pro" viewBox="0 0 64 64"><path d="M28 10H10v44h18M36 20l12 12-12 12M48 32H22" fill="none" stroke="#f1f4f5" stroke-width="5" stroke-linecap="round" stroke-linejoin="round"/><path d="M48 32H22" stroke="#e3484f" stroke-width="5"/></symbol>
  <symbol id="schedule-pro" viewBox="0 0 64 64"><rect x="7" y="10" width="42" height="42" rx="7" fill="none" stroke="#f1f4f5" stroke-width="5"/><path d="M7 23h42M17 6v10M39 6v10" stroke="#f1f4f5" stroke-width="5" stroke-linecap="round"/><circle cx="48" cy="46" r="12" fill="#18242d" stroke="#e3484f" stroke-width="4"/><path d="M48 39v8l5 3" fill="none" stroke="#f1f4f5" stroke-width="3" stroke-linecap="round"/></symbol>
</svg>
